<svg width="192" height="192" viewBox="0 0 192 192" fill="none" xmlns="http://www.w3.org/2000/svg">
<path d="M156.829 158.105L135.6 150.158L156.829 142.212C158.532 141.549 159.44 139.673 158.759 137.907C158.078 136.252 156.148 135.369 154.332 136.031L124.816 147.068C123.567 147.51 122.659 148.834 122.659 150.158C122.659 151.483 123.567 152.807 124.816 153.249L154.332 164.286C154.786 164.396 155.126 164.507 155.58 164.507C156.943 164.507 158.191 163.734 158.759 162.41C159.44 160.644 158.532 158.767 156.829 158.105V158.105Z" fill="#22AE63"/>
<path d="M126.064 157.885C130.453 157.885 134.011 154.425 134.011 150.158C134.011 145.891 130.453 142.432 126.064 142.432C121.676 142.432 118.118 145.891 118.118 150.158C118.118 154.425 121.676 157.885 126.064 157.885Z" fill="#91C7B3"/>
<path d="M155.58 146.847C159.969 146.847 163.527 143.388 163.527 139.121C163.527 134.854 159.969 131.395 155.58 131.395C151.192 131.395 147.634 134.854 147.634 139.121C147.634 143.388 151.192 146.847 155.58 146.847Z" fill="#91C7B3"/>
<path d="M155.58 168.922C159.969 168.922 163.527 165.463 163.527 161.196C163.527 156.929 159.969 153.47 155.58 153.47C151.192 153.47 147.634 156.929 147.634 161.196C147.634 165.463 151.192 168.922 155.58 168.922Z" fill="#91C7B3"/>
<g clip-path="url(#clip0_1_64)">
<path d="M133.646 43.0036C133.025 42.6559 132.272 42.5887 131.552 42.8168L50.9116 68.3605C50.1916 68.5887 49.5639 69.0935 49.1666 69.7639C48.7693 70.4343 48.6349 71.2154 48.7929 71.9355L53.8532 94.9755C54.0115 95.6954 54.4492 96.2953 55.0701 96.6432C55.6911 96.991 56.4444 97.0584 57.1645 96.8305L160.844 63.9887C161.381 63.8184 161.871 63.4928 162.252 63.053C162.633 62.6133 162.888 62.0791 162.984 61.5179C163.081 60.9568 163.015 60.3939 162.794 59.9005C162.574 59.407 162.209 59.0051 161.746 58.7455L133.646 43.0036ZM131.619 48.6032L153.097 60.635L58.6869 90.5405L54.8192 72.9305L131.619 48.6032ZM107.52 92.3509C106.899 92.0032 106.145 91.936 105.425 92.1641L59.3454 106.76C58.6254 106.989 57.9978 107.493 57.6005 108.164C57.2031 108.834 57.0687 109.615 57.2267 110.335L62.287 133.375L67.3473 156.415C67.5054 157.136 67.9431 157.736 68.564 158.084L96.6643 173.825C97.1275 174.085 97.668 174.19 98.2176 174.128C98.7672 174.065 99.3012 173.839 99.7521 173.476C100.203 173.114 100.551 172.631 100.751 172.09C100.951 171.55 100.995 170.974 100.878 170.437L91.3533 127.072L134.718 113.336C135.255 113.166 135.745 112.84 136.126 112.4C136.507 111.961 136.761 111.426 136.858 110.865C136.955 110.304 136.888 109.741 136.668 109.248C136.448 108.754 136.083 108.352 135.62 108.093L107.52 92.3509ZM105.493 97.9505L126.971 109.982L67.1207 128.94L63.253 111.33L105.493 97.9505ZM85.9233 128.792L94.0079 165.602L72.5302 153.57L68.3133 134.37L85.9233 128.792Z" fill="#22AE63"/>
</g>
<defs>
<clipPath id="clip0_1_64">
<rect width="134.205" height="146.941" fill="white" transform="matrix(0.872431 0.488737 -0.509834 0.860273 74.9154 0)"/>
</clipPath>
</defs>
</svg>
